<?xml version="1.0" standalone="no"?>
<!DOCTYPE svg PUBLIC "-//W3C//DTD SVG 20010904//EN"
 "http://www.w3.org/TR/2001/REC-SVG-20010904/DTD/svg10.dtd">
<svg version="1.0" xmlns="http://www.w3.org/2000/svg"
 width="840.000000pt" height="859.000000pt" viewBox="0 0 840.000000 859.000000"
 preserveAspectRatio="xMidYMid meet">

<g transform="translate(0.000000,859.000000) scale(0.100000,-0.100000)"
fill="#000000" stroke="none">
<path d="M5194 8518 c-32 -34 -58 -78 -51 -85 6 -5 52 44 70 74 16 26 2 34
-19 11z"/>
<path d="M2150 8482 c0 -5 8 -12 18 -15 9 -3 63 -25 118 -50 118 -52 156 -62
181 -48 15 9 13 10 -14 11 -30 0 -131 36 -218 78 -55 27 -85 35 -85 24z"/>
<path d="M4945 8463 c-11 -2 -31 -18 -45 -34 -38 -45 -192 -81 -369 -86 -74
-3 -144 -1 -155 4 -23 10 -145 67 -188 89 -23 11 -28 11 -28 0 0 -8 15 -19 33
-26 17 -7 63 -27 100 -46 67 -33 68 -34 42 -44 -14 -5 -33 -10 -41 -10 -28 0
-144 -32 -144 -40 0 -5 -15 -18 -33 -29 -26 -16 -59 -22 -135 -27 -56 -4 -102
-11 -102 -17 0 -6 32 -8 85 -5 48 3 82 2 79 -3 -3 -5 -44 -33 -91 -61 -50 -31
-79 -54 -70 -56 16 -3 211 121 258 165 20 18 136 60 176 63 1 0 -1 -8 -4 -17
-5 -13 -2 -15 11 -10 9 4 112 -1 228 -10 208 -18 210 -18 220 -43 12 -31 -5
-193 -28 -269 -29 -99 -166 -281 -211 -281 -28 0 -202 -41 -305 -72 -70 -21
-138 -51 -147 -67 -3 -5 -60 -12 -126 -16 -66 -3 -138 -11 -160 -17 -35 -9
-41 -8 -50 8 -5 10 -24 33 -41 51 -25 26 -40 33 -70 33 -49 0 -61 8 -70 45 -8
35 -31 77 -82 153 -69 104 -73 113 -51 144 11 15 49 52 84 84 59 52 81 84 55
84 -5 0 -10 -4 -10 -8 0 -5 -34 -42 -75 -83 -74 -75 -74 -75 -80 -47 -4 15
-11 30 -16 33 -5 4 -9 16 -9 28 -1 26 -20 61 -74 143 -31 46 -42 76 -53 139
-13 75 -38 134 -50 121 -4 -3 1 -23 10 -43 12 -29 37 -146 37 -174 0 -2 -10
-4 -22 -5 -13 -1 -59 -11 -102 -23 -44 -11 -124 -24 -177 -28 -68 -4 -100 -10
-103 -19 -12 -32 -128 2 -196 58 -19 16 -40 33 -46 38 -22 17 -89 50 -101 50
-21 0 -15 -24 15 -58 15 -18 35 -43 44 -56 15 -21 24 -24 60 -20 27 3 39 2 33
-4 -15 -14 -93 -31 -114 -25 -10 2 -41 -7 -69 -21 -37 -19 -50 -22 -46 -11 10
24 -8 17 -46 -19 -19 -18 -57 -41 -85 -50 -27 -9 -70 -28 -95 -42 -43 -25 -52
-26 -180 -26 -99 0 -124 -2 -95 -8 22 -5 76 -9 119 -9 78 -1 79 -1 61 -21 -10
-11 -23 -20 -28 -20 -18 0 -102 -53 -90 -57 16 -6 89 33 148 78 54 40 162 95
172 86 3 -3 -17 -30 -45 -59 -46 -49 -72 -87 -72 -104 0 -4 47 39 105 95 64
63 111 101 120 98 7 -3 19 1 26 9 19 23 39 31 140 58 104 28 165 25 162 -8 -1
-13 3 -15 15 -10 30 14 187 0 198 -18 4 -5 10 -5 17 1 24 19 64 0 87 -41 l23
-40 61 6 c33 4 83 10 109 13 59 6 78 -8 103 -78 10 -27 25 -56 34 -64 23 -20
15 -116 -11 -122 -10 -3 -23 -21 -30 -42 -6 -20 -32 -57 -57 -83 -119 -119
-175 -200 -187 -266 -5 -33 -15 -43 -101 -101 -52 -35 -105 -66 -117 -69 -12
-3 -33 -14 -47 -24 -14 -10 -52 -27 -84 -38 -63 -21 -111 -48 -103 -57 3 -3
18 2 34 11 15 9 59 27 96 40 58 20 67 21 63 7 -6 -19 -46 -212 -46 -223 0 -4
-28 -21 -62 -38 -35 -17 -72 -39 -83 -49 -18 -16 -105 -60 -146 -74 -23 -7
-65 -66 -73 -99 -3 -16 -13 -28 -20 -28 -8 0 -40 -13 -71 -30 -31 -16 -63 -30
-70 -30 -8 0 -19 17 -25 38 -9 29 -27 71 -47 110 -5 11 -99 -57 -131 -94 -33
-38 -48 -47 -122 -69 -47 -13 -90 -25 -96 -25 -22 0 -43 81 -59 224 -9 81 -14
150 -13 152 2 2 24 -3 48 -10 25 -7 72 -16 104 -19 81 -8 59 11 -26 23 -36 5
-78 14 -93 20 -16 6 -32 7 -39 2 -6 -5 -18 -10 -26 -10 -86 -6 -178 -42 -164
-63 3 -6 11 -4 18 6 7 9 35 19 67 24 30 4 60 10 66 14 23 14 33 -24 43 -169 6
-82 15 -157 21 -167 10 -19 2 -66 -12 -68 -5 -1 -15 -2 -21 -3 -7 -1 -12 -10
-11 -20 1 -12 -12 -24 -43 -37 -42 -19 -56 -41 -34 -54 6 -3 10 0 10 7 0 14
64 48 90 48 7 0 10 -8 7 -20 -4 -16 2 -22 36 -30 67 -17 95 -31 101 -48 3 -9
14 -30 25 -47 11 -16 20 -32 20 -35 2 -13 -62 -31 -89 -25 -35 8 -40 -2 -8
-14 21 -8 20 -10 -22 -31 -24 -12 -50 -28 -57 -36 -7 -7 -22 -16 -33 -19 -11
-4 -18 -10 -15 -15 8 -13 111 34 156 70 20 16 54 32 75 35 21 4 58 13 82 21
23 8 80 18 125 23 73 9 90 7 150 -12 46 -14 85 -36 118 -64 28 -23 69 -48 92
-54 49 -13 180 -6 185 10 4 13 108 15 116 2 3 -4 19 -11 36 -14 17 -4 53 -16
80 -28 46 -20 50 -24 50 -56 0 -46 -27 -173 -47 -220 -16 -39 -45 -221 -37
-234 9 -15 -9 -37 -35 -42 -28 -6 -52 -30 -94 -97 -22 -33 -26 -35 -92 -41
-73 -6 -137 -30 -158 -59 -7 -9 -39 -34 -72 -55 -72 -46 -70 -44 -62 -51 7 -7
113 60 152 97 40 38 103 59 165 54 29 -2 53 -5 55 -7 3 -3 13 -74 32 -247 5
-43 5 -44 -73 -122 -78 -78 -80 -80 -184 -112 -58 -19 -131 -39 -163 -45 -56
-11 -207 -87 -207 -105 0 -4 -24 -19 -53 -31 -29 -13 -59 -31 -66 -40 -7 -9
-25 -16 -40 -16 -14 0 -33 -5 -41 -10 -11 -7 -2 -10 31 -10 34 0 51 5 64 20
10 12 37 29 59 39 23 10 50 28 60 40 11 11 25 21 31 21 7 0 29 13 49 30 31 24
46 29 84 28 34 -1 66 7 115 30 66 31 87 38 87 27 0 -3 -30 -45 -66 -93 -37
-47 -68 -92 -71 -98 -2 -7 -18 -18 -34 -24 -16 -7 -29 -15 -29 -18 0 -2 12
-40 26 -83 l26 -78 -59 -72 -58 -72 -7 -91 c-3 -50 -10 -119 -14 -153 -7 -61
-6 -62 19 -68 15 -4 32 -14 39 -23 11 -13 11 -14 -1 -7 -11 6 -13 4 -7 -11 7
-16 36 -149 36 -165 0 -14 -174 -127 -287 -186 -18 -9 -33 -22 -33 -28 0 -7
-26 -29 -57 -50 -72 -48 -56 -56 26 -15 34 18 86 35 114 39 29 4 70 17 92 28
22 11 64 26 94 32 30 6 60 16 67 22 19 16 28 6 70 -68 21 -37 45 -75 53 -85 9
-9 32 -42 50 -74 l35 -57 -23 -40 c-13 -23 -24 -60 -26 -87 -3 -56 -49 -131
-96 -155 -16 -9 -62 -38 -102 -65 -40 -27 -85 -52 -102 -56 -16 -4 -37 -12
-45 -19 -31 -24 -101 -35 -226 -35 -82 0 -149 6 -184 15 -64 17 -70 18 -70 7
0 -18 107 -32 243 -32 141 -1 142 -1 119 -20 -12 -10 -44 -26 -70 -35 -26 -10
-68 -28 -93 -41 -26 -13 -53 -24 -61 -24 -20 0 -59 -36 -162 -152 -80 -90
-112 -135 -66 -93 11 10 22 16 24 14 11 -11 30 -143 35 -246 3 -61 9 -115 13
-119 12 -11 9 140 -3 221 -29 191 -31 167 21 223 25 27 58 66 74 86 53 70 73
37 82 -134 l6 -105 66 -130 c64 -126 66 -132 65 -200 -1 -38 -7 -92 -12 -120
-5 -27 -6 -54 -2 -58 5 -5 12 13 16 40 6 40 9 44 16 26 4 -12 32 -40 63 -62
30 -22 61 -50 69 -62 8 -11 17 -16 21 -11 9 15 -21 49 -75 84 -62 40 -79 76
-79 168 0 63 -5 77 -63 196 -61 125 -63 131 -61 204 1 93 11 140 40 206 20 45
29 53 76 73 29 13 87 43 129 66 42 24 89 47 105 51 16 4 36 13 45 21 14 11 25
11 75 -2 68 -18 74 -18 74 -6 0 5 -17 12 -38 16 -72 12 -71 20 14 75 43 28 81
55 84 59 3 5 16 7 30 6 26 -2 32 -19 54 -153 l7 -44 -41 7 c-54 9 -51 -2 5
-16 30 -8 45 -17 45 -27 0 -9 13 -30 29 -47 17 -16 36 -41 44 -55 35 -65 53
-90 64 -90 6 0 25 -17 42 -38 16 -21 48 -51 70 -67 45 -30 54 -64 25 -96 -10
-11 -15 -37 -15 -80 0 -66 -32 -237 -50 -270 -5 -10 -22 -25 -37 -33 -34 -19
-145 -128 -237 -234 -38 -44 -78 -81 -88 -81 -51 -3 -298 -108 -314 -134 -4
-6 0 -8 8 -4 8 3 70 31 139 61 78 35 139 56 163 56 20 0 37 4 37 9 0 5 12 23
26 40 21 26 33 31 69 31 24 0 45 -5 47 -12 2 -6 10 -8 16 -4 22 13 12 23 -29
30 l-40 6 22 33 c56 81 50 80 126 8 38 -35 97 -83 133 -107 115 -77 129 -93
141 -165 10 -64 35 -129 49 -129 12 0 40 -77 40 -110 0 -44 -52 -141 -99 -186
-23 -21 -43 -46 -46 -55 -3 -9 -48 -59 -99 -110 -51 -52 -124 -137 -163 -189
-84 -114 -91 -120 -148 -131 -25 -5 -80 -25 -123 -45 -42 -20 -114 -47 -160
-59 -83 -22 -111 -35 -76 -35 36 0 154 39 243 79 53 25 103 41 125 41 43 0 62
17 163 153 37 48 71 87 77 87 6 0 38 27 72 61 l61 60 64 -21 c44 -15 105 -25
194 -30 208 -13 250 -25 242 -66 -3 -18 6 -35 37 -67 69 -72 141 -176 138
-198 -1 -15 2 -19 15 -15 10 2 50 -12 88 -32 77 -40 116 -91 100 -128 -14 -32
7 -114 29 -114 5 0 36 -23 68 -51 l58 -50 82 29 c142 52 134 55 84 -40 -24
-46 -53 -87 -65 -93 -23 -11 -28 -25 -8 -25 25 0 45 25 87 105 23 44 55 92 71
108 27 25 36 27 107 27 109 0 143 -12 186 -64 33 -40 36 -50 36 -107 0 -34 5
-77 12 -95 9 -26 9 -39 0 -59 -10 -21 -10 -26 0 -23 10 4 13 36 13 120 0 64 4
120 8 125 11 10 37 -24 44 -60 8 -38 23 -44 23 -10 0 16 -11 45 -25 65 l-25
37 42 25 c39 22 57 24 195 28 96 3 154 1 156 -5 2 -6 29 2 62 16 33 14 70 29
83 32 12 4 22 11 22 16 0 6 4 8 8 5 9 -5 67 13 92 29 17 10 42 124 61 273 17
136 13 131 156 203 80 39 99 46 101 33 3 -12 11 -15 33 -10 21 4 29 2 29 -9 0
-8 16 -21 36 -30 20 -8 38 -24 41 -35 3 -11 9 -20 14 -20 20 0 7 27 -33 68
l-43 43 32 27 c17 15 42 35 55 44 32 21 66 137 70 235 4 103 -8 100 -17 -4 -4
-48 -17 -115 -29 -148 l-21 -60 -64 -21 c-36 -11 -67 -26 -69 -32 -10 -31 -20
-5 -26 70 -6 88 -10 113 -21 140 -4 11 5 29 29 56 29 32 36 47 36 80 0 61 56
206 96 249 19 20 34 39 34 42 0 20 -22 179 -27 195 -4 15 -2 18 13 11 11 -4
44 -14 74 -22 30 -8 62 -23 71 -34 9 -10 23 -19 31 -19 8 0 29 -11 48 -25 19
-14 43 -25 54 -25 13 0 2 11 -34 35 -30 19 -59 35 -64 35 -6 0 -19 8 -30 19
-12 10 -43 24 -71 31 -73 19 -103 37 -107 62 -5 37 29 179 55 228 21 41 33 50
143 104 65 32 135 61 154 63 29 4 61 -8 185 -70 82 -42 152 -74 154 -71 6 5
-20 34 -31 34 -27 0 -166 81 -209 122 -45 43 -49 51 -49 92 0 52 43 191 66
217 14 15 15 39 9 171 -6 130 -5 159 9 192 19 45 19 46 8 46 -5 0 -17 -18 -27
-40 -16 -35 -17 -57 -11 -195 l7 -155 -34 -43 c-47 -57 -93 -152 -102 -207 -3
-25 -9 -53 -11 -62 -5 -17 -243 -143 -252 -133 -8 7 18 34 39 40 19 7 27 35 9
35 -5 0 -10 5 -10 11 0 6 -13 26 -29 44 -24 28 -31 48 -40 122 -7 48 -16 106
-21 128 -5 22 -12 70 -16 108 -6 56 -4 71 10 86 10 11 13 20 7 22 -6 3 -2 22
10 49 l20 44 -27 123 -28 122 25 20 c13 12 46 27 72 35 26 9 89 36 139 61 85
42 98 45 167 45 42 -1 108 -5 146 -11 39 -6 106 -14 149 -17 l79 -7 17 -60
c30 -110 61 -155 149 -220 34 -25 61 -49 61 -54 0 -21 85 -185 88 -169 2 9
-11 44 -27 77 -17 33 -31 62 -31 64 0 2 30 10 66 17 36 8 68 18 71 23 6 10
-16 8 -103 -9 -24 -5 -37 -1 -56 18 -13 12 -50 42 -81 66 -63 48 -97 104 -122
198 -8 32 -17 60 -20 63 -6 5 -129 17 -280 27 -49 3 -94 10 -99 15 -6 5 13 32
46 67 35 37 58 71 63 92 19 86 68 140 243 266 72 52 95 74 76 74 -3 0 -22 -12
-42 -27 -20 -15 -62 -45 -92 -67 -30 -22 -81 -65 -112 -95 -46 -44 -62 -68
-79 -119 -27 -80 -120 -186 -173 -196 -18 -4 -74 -26 -124 -51 -51 -24 -109
-49 -131 -55 -21 -5 -44 -17 -51 -25 -7 -8 -16 -15 -21 -15 -18 0 -14 12 45
162 10 25 14 27 103 33 54 4 90 11 87 17 -5 8 -58 6 -156 -8 -36 -5 -37 -5
-44 32 -5 27 -2 45 11 66 18 31 14 58 -7 58 -30 0 -99 49 -157 111 l-61 67
-12 106 c-7 58 -9 108 -6 112 13 12 114 -49 155 -93 32 -35 46 -44 60 -38 10
5 33 8 51 7 22 -2 31 2 26 9 -4 7 -24 9 -51 6 -36 -4 -48 -1 -64 16 -10 11
-19 27 -19 34 0 7 -4 13 -9 13 -23 0 98 98 134 110 64 20 106 45 159 94 63 58
55 71 -9 16 -65 -56 -82 -67 -146 -89 -33 -11 -74 -36 -100 -60 -49 -46 -55
-47 -95 -26 -16 8 -40 15 -55 15 -35 0 -48 17 -42 56 3 19 -2 55 -11 82 -20
62 -26 375 -8 409 17 31 15 52 -13 121 -14 34 -25 71 -25 83 0 12 -8 40 -19
63 -29 65 -43 108 -48 147 -4 33 -2 36 35 53 28 13 51 16 74 12 97 -20 90 -22
153 38 33 30 65 55 70 56 8 0 57 22 197 91 10 5 24 9 31 9 12 0 41 55 73 138
18 49 40 69 83 76 22 3 41 13 45 22 5 13 16 16 56 12 34 -4 57 0 72 10 40 26
99 85 130 130 24 35 34 43 52 38 21 -5 23 0 39 92 21 120 22 136 2 128 -12 -4
-15 4 -15 39 0 31 -4 43 -12 40 -21 -7 -93 48 -96 74 -3 15 -8 21 -19 17 -17
-7 -108 78 -117 110 -5 15 0 23 17 31 40 19 203 147 279 220 69 65 125 140
114 150 -9 9 -26 -9 -46 -47 -18 -35 -130 -144 -139 -135 -2 3 2 11 9 20 10
12 10 15 0 15 -9 0 -11 9 -6 30 3 17 1 42 -5 57 -5 15 -17 75 -25 133 -8 58
-19 121 -24 140 -11 39 -6 77 10 94 6 6 40 27 75 46 126 68 230 133 218 137
-13 5 -37 -8 -133 -68 -36 -23 -86 -52 -111 -65 -26 -13 -60 -39 -76 -59 -38
-45 -116 -83 -199 -94 -66 -10 -94 -23 -94 -45 0 -26 -46 -56 -86 -56 -21 0
-76 -13 -121 -29 l-81 -28 -1 78 -1 79 43 21 c23 12 36 24 30 26 -16 6 -93
-37 -93 -51 -1 -6 -9 5 -20 25 -10 19 -33 51 -50 69 l-32 35 48 42 c64 54 54
63 -13 12 -39 -31 -57 -39 -74 -34 -20 7 -16 12 46 73 37 36 63 68 58 69 -5 2
-37 -24 -71 -58 l-61 -61 -33 19 c-40 23 -46 45 -19 72 12 12 21 27 21 35 0 7
16 33 35 57 19 24 35 51 35 60 0 19 77 109 93 109 7 0 23 18 36 40 14 22 39
54 56 70 31 30 32 30 64 14 17 -9 46 -31 64 -49 18 -17 71 -51 118 -74 48 -23
94 -50 103 -60 9 -9 25 -43 36 -75 24 -72 68 -119 93 -101 13 10 17 28 17 90
0 43 2 76 4 74 2 -2 7 -35 10 -74 10 -107 30 -110 23 -2 -2 48 -1 87 4 87 5 0
9 -38 9 -85 0 -50 4 -85 10 -85 6 0 10 36 10 88 0 60 3 82 10 72 5 -8 10 -47
10 -87 0 -69 -1 -72 -30 -90 -16 -9 -30 -21 -30 -25 0 -12 28 -10 36 3 3 6 15
9 25 6 12 -3 19 0 19 8 0 7 16 22 35 33 33 20 34 22 37 93 l3 73 68 46 c37 25
63 46 57 48 -5 2 -42 -18 -80 -43 -79 -52 -76 -52 -270 -26 -98 13 -100 14
-144 71 -36 47 -122 100 -163 100 -18 0 -73 57 -73 75 0 7 -20 46 -45 86 -25
40 -45 77 -45 81 0 15 218 9 257 -7 22 -9 63 -14 107 -14 l71 2 -70 7 c-38 4
-87 15 -107 24 -27 12 -68 16 -150 16 l-113 1 -65 61 -65 60 39 34 c34 29 36
34 18 34 -11 0 -25 -7 -30 -16 -14 -24 -28 -10 -40 38 -6 24 -20 61 -32 83
-18 35 -20 37 -20 14 0 -31 16 -84 37 -122 11 -22 13 -35 5 -50 -6 -12 -13
-30 -16 -40 -3 -9 -27 -31 -53 -48 -44 -28 -53 -30 -113 -25 -103 8 -182 23
-224 41 -26 11 -37 12 -34 4 8 -23 124 -52 260 -66 39 -4 59 1 109 26 48 24
59 27 54 13 -4 -9 -11 -39 -16 -67 -20 -113 -31 -155 -41 -155 -6 0 -19 -7
-29 -16 -21 -19 -91 -58 -216 -121 l-92 -46 -56 23 c-30 12 -55 26 -55 32 0 5
-13 37 -29 71 -42 92 -53 133 -60 222 l-6 79 -78 16 -78 15 -29 55 c-76 147
-71 126 -64 275 4 74 10 135 14 135 4 0 12 -11 18 -25 10 -22 18 -25 64 -25
36 0 63 -7 83 -20 21 -14 47 -20 85 -20 38 0 72 -8 110 -26 30 -14 73 -29 95
-34 22 -5 65 -15 95 -23 30 -8 76 -18 102 -22 43 -5 50 -3 70 19 48 53 80 97
75 102 -6 6 -23 -10 -75 -70 -30 -35 -36 -37 -70 -32 -98 16 -223 51 -280 77
-45 21 -78 29 -117 29 -36 0 -68 7 -94 21 -25 12 -54 19 -75 18 -38 -4 -65 19
-66 54 0 14 9 17 53 17 46 0 57 -4 82 -30 32 -33 71 -45 42 -12 -10 10 -17 25
-17 33 0 8 -14 20 -31 26 -30 12 -33 33 -4 33 19 0 141 56 149 68 3 6 2 13 -3
17 -5 3 -13 -1 -18 -8 -11 -18 -106 -57 -138 -57 -28 0 -64 34 -64 60 0 20 44
70 62 70 8 0 20 7 27 15 13 15 10 16 -25 8z m-90 -203 c3 -5 1 -10 -4 -10 -6
0 -11 5 -11 10 0 6 2 10 4 10 3 0 8 -4 11 -10z m-90 -596 c4 -12 2 -31 -4 -41
-5 -11 -19 -56 -31 -99 -23 -88 -59 -164 -77 -164 -7 0 -25 -14 -41 -31 -23
-25 -31 -44 -36 -92 -3 -34 -15 -79 -26 -102 -11 -23 -20 -46 -20 -52 0 -6 -6
-13 -14 -16 -8 -3 -17 -19 -21 -36 -6 -29 -9 -31 -56 -31 -44 0 -49 2 -49 22
0 12 7 29 15 38 13 14 14 28 4 93 -10 70 -10 79 10 120 11 24 21 47 21 51 0 4
20 49 44 99 24 51 53 124 66 162 15 45 36 84 59 110 45 49 115 151 127 185 7
19 10 -3 15 -85 4 -60 10 -120 14 -131z m100 62 c11 -7 50 -19 87 -26 l68 -12
-6 -87 c-7 -98 -33 -192 -77 -270 -24 -43 -32 -50 -39 -37 -23 41 -48 133 -64
237 -9 63 -25 130 -35 149 -14 25 -19 56 -19 110 l0 75 33 -63 c18 -34 42 -68
52 -76z m-356 -92 c-10 -13 -10 -17 1 -24 11 -7 11 -19 -5 -69 -19 -62 -49
-104 -97 -136 -27 -17 -28 -17 -47 6 -32 39 -71 126 -69 153 2 21 10 27 48 36
25 6 70 19 100 30 72 24 87 25 69 4z m-814 -109 c41 -45 56 -55 83 -55 18 0
32 -5 33 -12 0 -7 3 -22 5 -33 3 -11 7 -54 8 -95 2 -41 6 -91 10 -111 6 -28 4
-38 -7 -42 -13 -5 -14 -11 -4 -36 12 -32 -4 -88 -23 -76 -5 3 -19 1 -30 -5
-17 -9 -22 -7 -30 15 -6 15 -10 37 -10 50 0 13 -9 30 -21 38 -11 8 -26 35 -34
60 -8 25 -18 55 -24 65 -12 23 -71 250 -71 275 0 13 8 17 32 17 26 0 41 -10
83 -55z m565 36 c0 -25 28 -90 51 -120 38 -48 9 -59 -31 -11 -51 61 -60 70
-74 70 -9 0 -16 -12 -18 -32 l-3 -32 -28 42 c-15 24 -25 48 -21 53 8 14 84 48
107 49 10 0 17 -7 17 -19z m-1004 -80 c9 -18 20 -33 110 -145 54 -67 63 -85
75 -153 6 -32 15 -63 21 -70 5 -7 12 -45 14 -85 2 -40 6 -97 9 -126 4 -35 2
-58 -5 -68 -16 -18 -31 -18 -24 0 8 20 -17 32 -27 13 -6 -9 -17 -13 -29 -10
-26 7 -25 -5 1 -33 18 -19 19 -25 7 -43 -24 -38 -39 -34 -36 11 5 71 -18 54
-29 -23 -6 -39 -14 -73 -17 -76 -7 -7 -51 47 -51 62 0 5 12 16 28 23 38 18 35
36 -6 29 -35 -5 -96 -34 -170 -80 -25 -15 -65 -30 -89 -33 -23 -3 -62 -14 -86
-24 -42 -19 -43 -19 -77 0 -34 19 -59 10 -36 -13 24 -24 8 -24 -56 0 -38 14
-101 37 -140 52 -40 14 -73 29 -73 33 0 9 68 39 140 63 65 21 81 32 73 51 -3
8 1 14 8 14 18 0 49 -30 49 -48 0 -18 97 -112 116 -112 22 0 16 15 -15 38 -16
12 -48 57 -71 99 l-41 78 11 78 c14 95 31 139 67 167 46 35 192 130 202 130
13 0 102 -146 161 -265 19 -37 102 -125 118 -125 21 0 13 18 -17 39 -31 22
-97 125 -132 206 -12 28 -31 64 -43 80 -59 81 -68 106 -56 153 25 99 91 164
116 113z m847 -20 c22 -47 22 -136 1 -187 -15 -36 -16 -125 -2 -228 2 -11 -8
-24 -27 -35 -16 -9 -42 -24 -56 -34 -29 -19 -97 -29 -106 -14 -3 4 -6 32 -8
60 -1 29 -8 66 -15 82 -20 50 -40 157 -40 220 0 33 -5 80 -11 104 -5 24 -7 46
-4 49 10 10 88 19 170 20 l80 1 18 -38z m93 -88 c27 -46 47 -91 47 -108 1 -40
-39 -121 -79 -163 l-31 -32 -7 31 c-11 55 -7 138 9 175 11 27 13 55 9 105 -4
38 -4 69 -1 69 3 0 27 -35 53 -77z m820 -13 l-6 -80 32 6 c18 3 38 7 45 9 13
4 20 -30 28 -150 3 -49 11 -110 16 -135 8 -36 7 -53 -6 -84 -15 -35 -19 -38
-47 -32 -17 3 -68 22 -112 41 -45 19 -89 35 -98 35 -9 0 -19 3 -22 8 -5 9 10
99 23 127 4 11 14 42 20 68 6 27 29 77 49 112 21 35 46 84 56 109 10 25 20 46
23 46 3 0 3 -36 -1 -80z m574 64 c0 -27 -35 -131 -46 -137 -8 -4 -14 -15 -14
-22 0 -19 -9 -19 -31 1 -16 15 -19 14 -37 -3 -11 -10 -22 -25 -25 -33 -4 -12
-6 -11 -6 3 -2 33 -25 12 -36 -34 -16 -59 -34 -91 -47 -83 -6 4 -21 -5 -34
-21 -21 -26 -20 -20 12 86 18 63 34 117 34 120 0 3 33 23 73 44 39 21 88 48
107 61 36 23 50 29 50 18z m-1185 -119 c-26 -60 -32 -125 -16 -181 7 -24 5
-36 -10 -55 -10 -13 -19 -34 -19 -46 0 -19 -6 -23 -30 -23 l-30 0 0 60 c0 45
-4 60 -14 60 -8 0 -16 -6 -18 -12 -3 -7 -5 7 -6 31 -1 25 -4 46 -6 49 -11 10
27 86 55 113 50 47 114 87 117 73 2 -6 -9 -37 -23 -69z m1021 -131 c-4 -14 -9
-24 -12 -21 -3 2 -2 17 2 31 3 15 9 25 11 22 3 -3 2 -17 -1 -32z m811 -16 c-3
-8 -6 -5 -6 6 -1 11 2 17 5 13 3 -3 4 -12 1 -19z m40 -60 c-2 -18 -4 -6 -4 27
0 33 2 48 4 33 2 -15 2 -42 0 -60z m197 21 c2 -19 1 -25 -1 -14 -2 11 -11 25
-20 32 -8 6 -12 17 -8 23 11 18 25 -2 29 -41z m-1077 -31 c-3 -8 -6 -5 -6 6
-1 11 2 17 5 13 3 -3 4 -12 1 -19z m910 -70 c-3 -8 -6 -5 -6 6 -1 11 2 17 5
13 3 -3 4 -12 1 -19z m-900 -60 c-3 -8 -6 -5 -6 6 -1 11 2 17 5 13 3 -3 4 -12
1 -19z m-2022 -254 c13 -5 14 -8 3 -15 -19 -13 -28 -11 -28 6 0 17 2 18 25 9z
m-325 -698 c5 -13 12 -55 15 -93 4 -37 13 -99 21 -136 18 -86 18 -111 -1 -146
-8 -16 -17 -72 -21 -125 -4 -52 -10 -93 -14 -91 -4 2 -15 32 -24 65 -20 70
-41 82 -32 18 l6 -43 -14 35 c-8 22 -20 34 -30 34 -11 -1 -16 7 -18 25 -3 64
11 171 23 171 5 0 9 -4 9 -9 0 -24 21 -64 30 -55 6 6 2 32 -9 69 -12 38 -16
66 -10 76 5 9 15 57 24 105 23 132 28 144 45 100z m3272 -51 c11 -14 10 -79
-2 -91 -5 -5 -13 -49 -16 -97 -4 -49 -10 -84 -14 -80 -16 17 -39 142 -45 243
l-7 105 38 -35 c21 -19 42 -39 46 -45z m48 -33 c0 -5 16 -17 36 -28 34 -18 35
-21 29 -60 -15 -104 -30 -159 -48 -182 -6 -7 -23 -22 -39 -33 l-28 -20 5 94
c3 53 10 108 16 124 6 15 11 47 10 71 0 23 4 42 9 42 6 0 10 -4 10 -8z m-2290
-272 c0 -5 -4 -10 -10 -10 -5 0 -10 5 -10 10 0 6 5 10 10 10 6 0 10 -4 10 -10z
m-655 -526 c14 -21 22 -25 46 -20 32 6 79 -8 79 -24 0 -6 -12 -15 -27 -21
l-28 -11 40 -20 c93 -48 244 -30 324 39 l40 34 33 -34 c18 -18 42 -39 53 -46
14 -9 15 -11 3 -7 -9 3 -19 0 -22 -7 -2 -7 -5 -4 -5 6 -1 23 -21 22 -21 -1 0
-14 -26 -30 -102 -62 -92 -40 -113 -45 -195 -48 -65 -3 -108 1 -149 13 -113
33 -214 97 -214 136 0 10 -4 21 -10 24 -6 4 -4 16 6 31 15 22 15 24 -2 26 -22
1 57 14 102 16 24 2 36 -4 49 -24z m393 -5 c4 -19 -19 -31 -38 -19 -18 11 -4
42 17 38 10 -2 19 -10 21 -19z m-643 -9 c3 -5 1 -10 -4 -10 -6 0 -11 5 -11 10
0 6 2 10 4 10 3 0 8 -4 11 -10z m-515 -250 c0 -21 -4 -25 -22 -22 -26 5 -23
-21 12 -76 16 -26 25 -48 20 -50 -20 -7 -9 -45 38 -140 27 -53 47 -103 44
-111 -6 -17 -41 38 -83 127 -36 79 -107 182 -125 182 -20 0 -17 -11 11 -40 14
-15 52 -80 86 -146 33 -65 67 -124 75 -131 9 -6 13 -17 9 -23 -8 -12 -33 16
-59 69 -12 23 -21 30 -28 23 -7 -7 1 -29 26 -71 35 -57 36 -62 22 -83 -9 -12
-16 -41 -16 -64 0 -43 -8 -65 -49 -143 -17 -32 -26 -40 -34 -32 -6 6 -20 11
-31 11 -19 0 -19 -1 2 -23 32 -34 27 -42 -10 -18 -57 38 -130 73 -136 66 -8
-8 2 -15 88 -68 102 -63 60 -53 -56 13 -60 34 -115 66 -121 72 -8 6 -13 34
-13 66 0 52 3 59 48 111 69 79 72 87 59 146 -16 78 -13 107 16 140 15 17 54
67 87 112 39 54 71 88 92 97 41 18 48 19 48 6z m36 -93 c14 -30 14 -31 -1 -12
-25 30 -39 59 -26 51 6 -4 18 -22 27 -39z m59 -106 c19 -38 40 -71 46 -73 8
-3 5 -16 -8 -43 l-20 -39 -13 25 c-7 13 -28 52 -47 87 -19 34 -33 67 -31 73 2
6 21 -21 43 -60 22 -39 46 -71 53 -71 17 0 16 3 -28 84 -22 40 -40 76 -40 79
0 19 13 1 45 -62z m2689 -104 c8 -66 -2 -87 -40 -87 -16 0 -24 -6 -24 -18 0
-18 -18 -42 -30 -42 -10 0 -30 48 -30 70 0 11 13 34 28 52 16 18 39 50 52 72
27 45 35 38 44 -47z m-1944 -122 c0 -8 -4 -15 -10 -15 -5 0 -7 7 -4 15 4 8 8
15 10 15 2 0 4 -7 4 -15z m-146 -87 c-7 -89 -21 -145 -24 -98 -6 87 5 180 21
180 6 0 7 -33 3 -82z m164 4 c2 -18 -2 -40 -9 -48 -6 -8 -14 -46 -17 -85 -3
-51 -8 -67 -16 -59 -12 12 -15 184 -4 213 13 30 43 16 46 -21z m1910 16 c14
-12 16 -161 2 -193 -7 -17 -9 -17 -9 -2 -2 32 -27 17 -50 -28 -12 -25 -24 -45
-26 -45 -8 0 -1 226 7 237 6 7 8 19 5 27 -10 26 39 29 71 4z m-2140 -70 c-2
-30 -8 -43 -18 -43 -20 0 -25 32 -9 61 19 36 30 29 27 -18z m-72 -5 c-10 -10
-19 5 -10 18 6 11 8 11 12 0 2 -7 1 -15 -2 -18z m444 -75 c0 -120 -10 -209
-21 -183 -9 25 -12 259 -2 268 18 18 23 -1 23 -85z m1299 -85 c-1 -77 -2 -82
-10 -43 -11 64 -11 130 1 130 6 0 9 -35 9 -87z m-1969 -54 c0 -58 -4 -89 -11
-89 -7 0 -10 13 -7 34 2 19 0 32 -4 30 -10 -6 -11 51 -2 95 12 57 24 21 24
-70z m2459 32 c16 -30 -2 -114 -37 -167 -18 -26 -32 -52 -33 -58 0 -6 -7 3
-14 19 -8 17 -14 55 -15 86 0 49 4 60 36 97 40 47 49 50 63 23z m26 -250 c3
-36 8 -84 11 -107 4 -38 2 -43 -30 -67 l-34 -26 -11 42 c-14 59 -8 169 11 199
29 45 46 31 53 -41z m-2937 -280 c48 -25 88 -53 92 -65 70 -172 79 -203 73
-253 -3 -28 -8 -56 -12 -61 -4 -7 -30 -8 -69 -5 l-62 6 0 35 c0 20 9 55 21 78
l20 43 -22 43 c-12 24 -31 57 -44 73 -12 17 -30 48 -40 70 -10 22 -28 51 -39
64 -25 28 -24 28 82 -28z m3156 -137 c11 -29 6 -34 -29 -34 -40 0 -45 12 -13
34 28 20 34 20 42 0z m16 -89 c0 -9 -14 -48 -31 -88 -27 -64 -35 -75 -74 -94
-25 -13 -48 -23 -51 -23 -13 0 7 67 43 143 36 76 36 77 75 77 27 0 38 -4 38
-15z m-3097 -192 c-7 -2 -21 -2 -30 0 -10 3 -4 5 12 5 17 0 24 -2 18 -5z
m3097 -235 c1 -44 -91 -188 -121 -188 -2 0 -4 64 -4 142 0 79 -4 166 -9 195
l-8 51 38 20 38 20 33 -112 c17 -61 32 -118 33 -128z m-3095 191 c-7 -10 -35
-1 -35 11 0 5 9 6 20 3 11 -3 17 -9 15 -14z m136 -109 c39 -120 66 -170 81
-149 6 9 11 10 14 3 2 -5 36 -52 74 -102 39 -51 70 -94 70 -96 0 -3 -22 -17
-50 -32 -47 -25 -63 -44 -40 -44 15 0 71 29 93 48 26 23 32 8 29 -70 -3 -76
-19 -119 -75 -200 -17 -25 -37 -55 -43 -65 -9 -14 -11 3 -10 79 1 92 9 126 24
101 7 -11 62 -13 62 -2 0 4 -10 10 -22 13 -22 6 -21 8 11 24 19 9 36 23 39 29
7 23 -27 25 -54 4 l-26 -21 -47 41 c-44 38 -101 105 -101 119 0 10 69 40 94
40 29 0 39 10 26 25 -7 9 -38 11 -103 7 l-93 -5 -37 52 c-47 65 -65 117 -73
206 l-7 71 39 11 c88 24 88 24 125 -87z m2029 -270 c0 -16 -4 -30 -10 -30 -5
0 -10 14 -10 30 0 17 5 30 10 30 6 0 10 -13 10 -30z m-540 -31 c0 -52 -24 -48
-28 4 -2 28 1 37 12 37 12 0 16 -11 16 -41z m827 19 c-3 -8 -6 -5 -6 6 -1 11
2 17 5 13 3 -3 4 -12 1 -19z m-2281 -3 c-22 -17 -52 -20 -61 -6 -3 5 9 12 27
14 18 2 38 4 43 5 6 1 1 -5 -9 -13z m2231 -39 c-4 -9 -11 -16 -17 -16 -11 0
-13 30 -3 56 6 16 7 16 16 -4 5 -11 7 -28 4 -36z m-497 4 c0 -20 -5 -30 -15
-30 -16 0 -19 17 -9 44 10 26 24 18 24 -14z m40 5 c0 -8 -4 -15 -10 -15 -5 0
-10 7 -10 15 0 8 5 15 10 15 6 0 10 -7 10 -15z m826 -33 c-10 -10 -29 15 -21
28 6 9 10 8 17 -4 6 -10 7 -20 4 -24z m-86 8 c0 -11 -4 -20 -10 -20 -5 0 -10
9 -10 20 0 11 5 20 10 20 6 0 10 -9 10 -20z m-701 -160 c9 0 21 49 21 87 0 21
3 22 20 13 11 -6 20 -17 20 -25 0 -8 4 -15 9 -15 10 0 24 -69 25 -127 l1 -42
-90 2 c-86 2 -90 3 -93 25 -5 33 36 165 56 180 15 12 17 8 20 -43 2 -30 7 -55
11 -55z m217 81 c33 6 44 -4 55 -47 8 -31 16 -44 25 -40 10 4 14 -3 14 -22 0
-15 3 -37 6 -50 5 -18 2 -24 -15 -29 -23 -6 -26 -20 -11 -43 9 -13 12 -13 21
3 8 14 14 16 25 6 19 -16 18 -75 -5 -138 -14 -41 -20 -49 -26 -34 -6 15 -10
11 -24 -21 -13 -31 -19 -36 -24 -23 -11 30 -25 18 -32 -29 -8 -53 -22 -54 -47
-3 -44 88 -62 215 -35 238 8 6 30 10 50 9 48 -2 55 7 29 35 -18 19 -22 35 -22
85 0 34 -4 62 -9 62 -16 0 -19 -22 -13 -87 5 -58 3 -63 -15 -63 -12 0 -24 7
-27 16 -9 22 -7 99 2 108 4 4 7 11 7 16 0 5 11 23 24 40 15 22 26 28 31 21 4
-7 11 -11 16 -10z m-436 -203 c-8 -4 -30 -7 -49 -7 l-34 -1 6 70 c3 38 12 79
20 90 15 22 27 17 27 -12 0 -32 17 -19 26 20 8 32 10 24 14 -58 4 -78 2 -96
-10 -102z m727 186 c22 -6 43 -64 43 -123 0 -25 4 -31 23 -32 17 0 14 -5 -18
-20 -30 -14 -56 -18 -103 -15 -35 2 -68 8 -74 14 -5 5 -6 25 -2 47 4 23 10 32
14 25 4 -7 12 -10 18 -6 6 3 13 -3 17 -14 13 -41 25 -18 25 49 0 64 5 77 30
80 3 0 15 -2 27 -5z m-663 -90 c0 -47 -4 -60 -17 -62 -15 -3 -16 3 -10 45 3
26 10 50 15 51 5 2 3 11 -4 20 -11 13 -11 14 1 11 11 -4 15 -22 15 -65z m816
-90 c0 -8 -5 -12 -10 -9 -6 4 -8 11 -5 16 9 14 15 11 15 -7z m-1010 2 c0 -3
-4 -8 -10 -11 -5 -3 -10 -1 -10 4 0 6 5 11 10 11 6 0 10 -2 10 -4z m424 -25
c23 -9 29 -76 9 -106 -7 -11 -13 -34 -13 -51 0 -17 -7 -47 -15 -65 l-14 -34
-1 68 c0 50 -3 68 -12 65 -7 -3 -14 -21 -16 -41 -2 -26 -7 -34 -18 -30 -8 3
-17 -4 -22 -17 -7 -20 -11 -15 -26 33 -10 31 -24 61 -31 67 -8 7 -17 28 -21
48 -8 40 11 62 53 62 20 0 23 -5 23 -40 0 -22 5 -40 10 -40 6 0 10 20 10 45 0
44 1 45 33 44 17 0 41 -4 51 -8z m496 -26 c0 -8 -5 -36 -11 -63 -8 -41 -14
-49 -28 -45 -15 4 -19 -4 -26 -49 -6 -42 -9 -48 -14 -29 -8 31 -27 38 -34 12
-3 -14 -11 -18 -26 -14 -17 4 -21 1 -21 -18 0 -14 -4 -19 -9 -14 -13 14 -18
169 -6 174 6 3 12 -8 15 -24 9 -52 24 -31 21 29 l-3 59 32 -7 c18 -3 39 -6 46
-6 9 0 14 -11 14 -29 0 -17 5 -33 10 -36 6 -4 10 9 10 33 0 21 3 42 6 45 10 9
24 -2 24 -18z m-732 8 c20 -5 23 -10 18 -37 -15 -88 -17 -94 -37 -89 -15 4
-19 0 -19 -20 0 -14 -7 -28 -16 -31 -14 -5 -16 -1 -11 28 3 19 3 37 0 40 -10
10 -33 -15 -33 -36 0 -10 -4 -17 -9 -14 -5 4 -12 0 -14 -6 -3 -7 -6 1 -6 19
-1 17 -6 33 -13 35 -6 2 -14 27 -18 56 l-6 51 60 4 c34 2 66 4 71 5 6 1 21 -1
33 -5z m855 -35 c3 -10 1 -16 -4 -12 -10 6 -12 -29 -2 -40 11 -10 12 -37 2
-30 -5 3 -9 -2 -9 -10 0 -10 -6 -13 -15 -10 -8 4 -15 1 -15 -5 0 -6 5 -11 10
-11 6 0 10 -5 10 -12 0 -6 -7 -4 -18 5 -10 10 -22 14 -25 10 -4 -3 -7 30 -7
74 l0 80 34 -11 c19 -6 37 -19 39 -28z m-1062 -61 c-8 -8 -11 2 -11 34 0 59
14 73 18 19 2 -24 -2 -48 -7 -53z m1493 -46 c-1 -21 -4 -44 -8 -50 -5 -7 -20
-57 -34 -112 -15 -55 -30 -100 -34 -100 -5 1 -26 1 -48 1 -38 0 -40 2 -40 30
0 16 18 65 40 107 22 43 40 83 40 89 0 7 9 14 20 17 14 3 20 14 20 31 0 20 5
26 23 26 19 0 22 -5 21 -39z m-1134 -137 c0 -2 -9 -4 -20 -4 -11 0 -20 4 -20
9 0 5 9 7 20 4 11 -3 20 -7 20 -9z m124 -97 c0 -9 -1 -42 -2 -74 -3 -74 -8
-65 -16 25 -5 57 -3 73 6 70 7 -3 13 -12 12 -21z m115 -34 c-1 -32 -5 -69 -9
-83 -7 -23 -8 -22 -10 10 0 19 -3 56 -6 83 -4 38 -2 47 11 47 12 0 15 -12 14
-57z m-289 4 c0 -18 -6 -42 -14 -53 -14 -18 -15 -18 -25 9 -20 52 -13 77 21
77 14 0 18 -8 18 -33z m348 -33 c2 -29 1 -44 -6 -41 -11 8 -24 76 -16 89 10
16 17 0 22 -48z m-1262 6 c0 -11 -4 -20 -8 -20 -4 0 -8 9 -8 20 0 11 4 20 8
20 4 0 8 -9 8 -20z m1503 -12 c0 -13 -4 -32 -8 -43 -8 -19 -8 -19 -15 3 -8 25
1 62 15 62 5 0 9 -10 8 -22z m533 -11 c17 -21 24 -47 12 -47 -3 0 -20 11 -38
25 -18 14 -40 25 -49 25 -10 0 -17 7 -17 16 0 24 70 9 92 -19z m-295 -39 c-2
-13 -4 -5 -4 17 -1 22 1 32 4 23 2 -10 2 -28 0 -40z m-1117 -16 c0 -60 -17
-72 -22 -16 -5 53 -2 68 13 59 5 -4 9 -23 9 -43z m132 -91 c-3 -70 -8 -108
-13 -100 -10 16 -12 213 -2 223 16 15 19 -15 15 -123z m1310 44 c4 -7 10 -37
14 -66 5 -47 3 -57 -14 -73 -18 -15 -26 -17 -53 -7 -38 13 -79 14 -79 2 0 -5
15 -12 33 -15 46 -9 63 -21 50 -38 -6 -7 -16 -31 -22 -53 -7 -22 -21 -56 -32
-76 -10 -21 -16 -44 -13 -52 3 -9 2 -23 -3 -31 -7 -13 -21 -9 -88 25 l-80 39
58 -6 c39 -4 57 -3 57 5 0 6 -7 11 -15 11 -8 0 -15 5 -15 11 0 7 10 9 27 4 44
-11 45 -11 50 1 2 7 -7 14 -20 18 -13 3 -40 12 -60 21 l-37 15 36 58 c62 97
107 152 126 152 23 0 23 9 1 25 -22 16 -44 90 -31 103 10 10 95 -46 110 -73z
m-1923 58 c0 -10 -4 -27 -9 -38 -7 -18 -8 -18 -15 7 -7 28 -1 48 16 48 5 0 9
-8 8 -17z m1117 -199 c3 -25 2 -64 -3 -87 -11 -47 -11 -46 -31 63 -11 59 -9
70 13 70 9 0 16 -17 21 -46z m-9 -306 c-2 -18 -4 -6 -4 27 0 33 2 48 4 33 2
-15 2 -42 0 -60z m628 21 l68 -30 -34 -35 c-18 -19 -36 -34 -41 -34 -4 0 -23
14 -43 31 -27 24 -35 39 -35 65 0 19 4 34 9 34 4 0 39 -14 76 -31z m-1275
-166 c0 -57 -5 -53 -14 11 -5 33 -4 46 3 41 6 -3 11 -27 11 -52z m-1091 -47
c-2 -2 -37 -22 -77 -45 -76 -43 -97 -48 -122 -31 -13 9 -11 14 13 35 15 14 39
25 52 25 13 0 26 4 29 8 3 5 28 9 57 10 28 0 50 -1 48 -2z m35 -48 c-11 -11
-35 -33 -55 -49 -33 -26 -40 -28 -69 -18 -39 14 -34 19 61 69 73 39 98 38 63
-2z m178 5 c56 -22 67 -30 62 -45 -6 -20 6 -24 24 -6 9 9 23 6 62 -12 l51 -24
-23 -18 c-13 -10 -27 -18 -31 -18 -5 0 -20 -9 -34 -20 -15 -11 -29 -18 -32
-14 -3 3 5 14 19 24 29 22 20 38 -12 24 -30 -13 -58 -7 -58 13 0 11 -6 14 -25
9 -13 -3 -70 -3 -125 0 l-101 7 53 54 c61 62 74 64 170 26z m260 -150 c45 -64
78 -121 78 -136 0 -7 9 -18 20 -25 11 -6 29 -31 41 -54 12 -24 27 -50 34 -58
11 -12 11 -21 0 -47 l-13 -32 -69 36 c-37 20 -70 38 -72 40 -3 2 3 20 13 39
22 47 11 58 -19 19 l-24 -29 -20 26 c-11 14 -36 44 -56 68 -19 23 -38 54 -41
69 -4 14 -11 32 -17 39 -5 7 -8 14 -6 16 4 4 113 75 116 75 0 1 16 -20 35 -46z
m1698 -70 c0 -2 -5 -13 -11 -25 -13 -24 -49 -198 -49 -237 0 -14 -9 -44 -20
-65 -16 -29 -18 -41 -9 -52 9 -11 6 -16 -17 -25 -24 -9 -36 -7 -69 11 -65 36
-94 65 -88 89 7 26 28 27 78 1 47 -24 45 -24 45 -6 0 8 -21 22 -47 32 -27 10
-50 19 -52 21 -5 4 75 175 104 223 12 19 29 47 39 62 l16 28 40 -26 c22 -15
40 -29 40 -31z m-1199 -393 c24 -16 54 -30 65 -30 32 0 19 -45 -20 -73 -28
-20 -185 -77 -214 -77 -6 0 -35 22 -62 48 l-50 49 15 43 c22 62 37 69 136 70
79 0 89 -2 130 -30z m970 -15 l38 -34 -42 -12 c-23 -6 -51 -16 -62 -22 -11 -6
-99 -12 -200 -15 -152 -3 -183 -7 -205 -22 -14 -10 -37 -18 -51 -18 -23 0 -28
6 -33 37 -10 64 -8 70 32 80 56 14 232 22 232 11 0 -6 -7 -10 -15 -10 -8 0
-15 -7 -15 -15 0 -21 17 -19 74 9 35 17 60 22 84 19 18 -3 43 -1 55 5 25 12
48 20 61 21 5 1 26 -15 47 -34z m-582 -100 c1 -29 -2 -36 -9 -25 -5 8 -9 35
-9 60 0 34 2 40 9 25 5 -11 9 -38 9 -60z"/>
<path d="M3660 7517 c0 -31 66 -166 85 -173 20 -8 34 4 18 14 -7 4 -31 47 -53
95 -23 48 -43 87 -45 87 -3 0 -5 -10 -5 -23z"/>
<path d="M3150 7069 c0 -36 4 -49 13 -46 6 2 12 9 11 15 -1 7 -2 28 -2 47 -3
55 -22 41 -22 -16z"/>
<path d="M4850 2243 c0 -10 -3 -28 -6 -40 -5 -17 -2 -23 10 -23 12 0 16 10 16
40 0 22 -4 40 -10 40 -5 0 -10 -8 -10 -17z"/>
<path d="M5652 1724 c1 -9 9 -19 16 -22 9 -3 13 2 10 14 -1 9 -9 19 -16 22 -9
3 -13 -2 -10 -14z"/>
<path d="M6331 8343 c-34 -37 -61 -70 -61 -73 0 -3 -27 -26 -59 -50 -33 -25
-62 -53 -64 -62 -3 -10 -4 -18 -3 -18 1 0 22 17 46 38 111 95 232 232 206 232
-3 0 -32 -30 -65 -67z"/>
<path d="M3658 8304 c-51 -47 -95 -91 -97 -97 -5 -15 70 45 139 111 30 28 58
52 62 52 5 0 8 5 8 10 0 22 -22 7 -112 -76z"/>
<path d="M5647 8298 c-4 -29 -9 -102 -11 -163 l-5 -110 13 85 c18 112 27 240
16 240 -4 0 -10 -24 -13 -52z"/>
<path d="M5853 8109 c-35 -16 -63 -34 -63 -40 0 -8 4 -8 13 -2 11 9 86 33 102
33 4 0 5 -32 1 -71 -4 -49 -12 -76 -26 -91 -11 -12 -17 -25 -14 -30 3 -4 0 -8
-5 -8 -6 0 -11 -4 -11 -10 0 -5 6 -7 13 -5 6 2 31 9 54 15 24 6 51 20 62 31
15 16 38 22 127 29 69 5 129 5 167 -2 62 -11 171 4 184 25 4 7 -6 8 -28 3 -74
-15 -126 -18 -164 -7 -50 14 -280 -4 -311 -24 -20 -13 -22 -12 -27 15 -4 16
-4 51 0 78 l6 50 83 4 c46 1 88 8 95 15 8 8 -8 10 -68 6 -54 -4 -82 -2 -87 6
-11 17 -35 12 -103 -20z"/>
<path d="M3695 8040 c-4 -6 7 -10 25 -10 16 0 87 -11 156 -25 131 -26 184 -31
184 -16 0 4 -34 11 -75 15 -41 4 -107 15 -147 26 -81 22 -134 25 -143 10z"/>
<path d="M4170 7952 c0 -15 236 -112 271 -112 28 0 15 17 -18 23 -45 9 -136
43 -189 71 -52 28 -64 31 -64 18z"/>
<path d="M3606 7813 c46 -108 64 -154 64 -171 0 -20 29 -65 30 -46 0 18 -47
159 -71 209 -25 54 -46 61 -23 8z"/>
<path d="M2681 7771 c-34 -27 -58 -52 -53 -55 14 -8 132 71 132 89 0 24 -13
18 -79 -34z"/>
<path d="M2148 7713 c-10 -32 -22 -115 -28 -185 -7 -96 -16 -143 -35 -190 -14
-34 -25 -67 -25 -73 0 -6 -11 -22 -24 -34 -21 -19 -31 -22 -63 -16 -69 12
-126 11 -131 -3 -3 -9 3 -11 22 -6 15 3 46 1 71 -6 l43 -12 -29 -50 c-17 -28
-41 -65 -55 -83 -25 -34 -29 -45 -16 -45 5 0 33 38 63 85 52 81 56 85 102 95
26 5 65 10 85 10 20 1 73 7 117 16 115 21 300 44 370 44 61 0 198 21 270 40
22 6 50 14 63 17 12 3 22 10 22 15 0 5 -8 7 -17 4 -98 -29 -310 -63 -443 -70
-52 -3 -138 -13 -190 -21 -120 -20 -260 -30 -260 -20 0 9 110 116 185 180 44
37 67 47 185 80 155 43 170 50 170 72 0 9 12 29 27 45 14 15 24 31 20 34 -10
10 -36 -16 -57 -56 -14 -28 -28 -40 -57 -48 -21 -6 -85 -24 -143 -40 -104 -28
-126 -40 -195 -110 l-23 -22 -6 45 c-4 24 -11 47 -17 50 -16 10 -10 136 11
223 23 95 22 92 12 92 -4 0 -15 -26 -24 -57z"/>
<path d="M2485 6956 c-60 -35 -150 -116 -127 -116 6 0 36 22 66 49 30 27 70
55 90 62 20 7 36 19 36 26 0 17 5 18 -65 -21z"/>
<path d="M6075 6844 c-38 -19 -72 -39 -73 -44 -4 -12 22 -3 101 38 82 42 57
47 -28 6z"/>
<path d="M1787 6254 c-45 -24 -21 -36 26 -13 54 27 55 29 26 29 -13 -1 -37 -8
-52 -16z"/>
<path d="M1640 6243 c0 -13 45 -33 75 -33 40 0 38 18 -3 22 -20 3 -45 8 -54
12 -10 5 -18 4 -18 -1z"/>
<path d="M6763 5936 c-20 -9 -31 -26 -18 -26 12 0 55 24 55 32 0 10 -8 9 -37
-6z"/>
<path d="M6535 5917 c-60 -13 -57 -10 -49 -31 5 -14 18 -16 77 -14 50 2 72 7
75 17 3 10 0 12 -14 7 -17 -7 -17 -6 1 14 18 20 18 20 -11 19 -16 -1 -51 -6
-79 -12z"/>
<path d="M1820 5852 c0 -12 44 -28 105 -38 73 -12 132 -43 159 -85 18 -27 33
-39 49 -38 l22 0 -22 11 c-11 5 -29 25 -39 44 -21 38 -75 65 -178 89 -35 8
-72 18 -80 21 -9 3 -16 2 -16 -4z"/>
<path d="M2565 5809 c-47 -9 -119 -38 -112 -45 3 -3 27 2 53 10 27 9 65 19 84
24 46 11 25 21 -25 11z"/>
<path d="M2271 5745 c-65 -15 -79 -21 -68 -31 8 -8 137 22 150 35 14 14 0 13
-82 -4z"/>
<path d="M2152 5663 c2 -9 20 -22 41 -29 21 -7 55 -28 77 -46 25 -22 72 -44
137 -66 104 -34 223 -53 223 -35 0 6 -30 14 -67 18 -94 9 -239 60 -289 101
-23 19 -55 39 -73 45 -17 6 -31 15 -31 20 0 5 -5 9 -11 9 -6 0 -9 -7 -7 -17z"/>
<path d="M2079 5502 c-63 -59 -129 -118 -147 -130 -18 -13 -39 -36 -46 -50
-29 -56 -63 -82 -105 -82 -22 0 -43 -4 -46 -10 -4 -6 14 -10 47 -10 93 -1 195
-19 259 -45 57 -24 85 -27 63 -5 -13 13 -181 60 -215 60 -16 0 -29 4 -29 9 0
20 62 101 102 132 22 18 68 60 102 93 34 34 81 77 106 97 25 20 39 38 33 42
-6 4 -62 -42 -124 -101z"/>
<path d="M6408 5257 c7 -8 32 -18 55 -22 142 -20 167 -28 161 -48 -3 -11 -7
-68 -9 -126 -2 -80 -8 -121 -25 -166 -24 -65 -34 -124 -50 -279 -5 -54 -17
-129 -26 -165 -16 -61 -68 -160 -93 -175 -6 -4 -11 -12 -11 -18 0 -11 49 28
112 87 20 19 43 35 52 35 8 0 25 13 38 29 13 16 37 36 53 44 42 22 91 64 84
71 -4 4 -28 -7 -55 -23 -94 -57 -89 -65 -88 169 0 153 4 225 17 284 9 43 17
102 17 131 0 50 2 54 47 89 32 25 57 36 80 36 18 0 33 5 33 11 0 8 -25 10 -88
5 -56 -5 -98 -3 -116 4 -16 6 -54 15 -85 20 -31 5 -69 12 -86 16 -27 6 -29 5
-17 -9z"/>
<path d="M1595 5229 c13 -39 77 -169 87 -175 14 -9 2 28 -41 118 -20 42 -40
77 -44 78 -5 0 -5 -10 -2 -21z"/>
<path d="M6194 5196 c-23 -28 -45 -62 -49 -76 -4 -14 -25 -54 -47 -89 l-40
-64 29 7 c15 4 49 21 74 37 26 16 51 29 55 28 22 -4 34 2 34 16 0 22 -16 19
-81 -20 -32 -19 -59 -31 -59 -27 0 24 105 202 119 202 11 0 22 28 13 33 -4 3
-26 -18 -48 -47z"/>
<path d="M1700 5010 c1 -29 66 -123 80 -115 20 12 11 64 -12 76 -13 6 -33 23
-45 37 l-23 27 0 -25z"/>
<path d="M5860 4950 c8 -5 26 -9 40 -9 23 0 23 1 5 9 -11 5 -29 9 -40 9 -17 1
-17 -1 -5 -9z"/>
<path d="M1798 4779 c6 -7 12 -30 12 -51 0 -21 5 -38 11 -38 6 0 9 19 7 47 -2
39 -7 49 -23 51 -16 3 -18 1 -7 -9z"/>
<path d="M5896 4779 c3 -6 27 -20 53 -31 25 -10 55 -28 66 -38 11 -10 38 -25
60 -33 141 -53 179 -66 184 -61 7 7 -18 23 -49 30 -14 4 -49 17 -78 30 -29 13
-58 24 -64 24 -6 0 -26 11 -44 25 -28 22 -115 65 -130 65 -3 0 -2 -5 2 -11z"/>
<path d="M6296 4652 c-6 -9 29 -42 44 -42 13 0 12 11 -4 33 -14 18 -32 22 -40
9z"/>
<path d="M1779 4492 c-63 -64 -169 -212 -169 -236 0 -6 -9 -28 -20 -49 -11
-20 -20 -56 -20 -79 0 -24 -7 -52 -15 -62 -13 -17 -12 -22 10 -48 13 -16 30
-48 36 -71 17 -63 27 -87 39 -87 12 0 13 23 1 36 -5 5 -14 27 -21 49 -7 22
-21 55 -31 73 -14 25 -16 38 -9 52 5 10 10 37 10 59 0 79 90 234 204 351 43
44 72 80 65 80 -8 0 -44 -30 -80 -68z"/>
<path d="M6347 4469 c-17 -59 -47 -89 -86 -89 -27 0 -171 -68 -171 -80 0 -5
-16 -30 -35 -56 -34 -45 -43 -64 -27 -64 4 0 16 15 26 34 31 58 91 109 128
110 34 2 115 43 155 79 23 21 38 71 31 104 -3 11 -11 -4 -21 -38z"/>
<path d="M6392 4213 c-6 -12 -12 -28 -12 -35 0 -22 -80 -93 -145 -128 -33 -18
-64 -37 -70 -44 -19 -21 -170 -107 -198 -113 -50 -10 -100 -30 -90 -36 21 -13
199 57 238 94 5 5 22 9 38 9 34 0 180 24 283 46 39 8 116 19 170 23 55 4 108
13 119 19 36 21 -147 0 -423 -48 -68 -12 -126 -19 -129 -17 -2 3 21 20 52 38
132 79 191 140 183 191 l-3 23 -13 -22z"/>
<path d="M1819 3386 c-8 -8 -30 -42 -49 -76 -20 -35 -46 -68 -62 -76 -24 -13
-38 -34 -23 -34 14 0 72 46 81 64 6 12 26 45 44 74 32 50 37 79 9 48z"/>
<path d="M2560 2795 c-19 -7 -54 -14 -77 -14 -24 -1 -43 -5 -43 -11 0 -15 74
-12 125 6 25 8 55 12 65 9 15 -5 18 -3 14 9 -7 19 -36 19 -84 1z"/>
<path d="M6680 2636 c0 -48 5 -88 10 -91 8 -5 10 23 8 84 -2 50 -6 91 -10 91
-5 0 -8 -38 -8 -84z"/>
<path d="M6530 2114 c0 -4 9 -21 19 -38 11 -17 25 -52 31 -78 10 -38 28 -63
91 -128 77 -79 101 -94 57 -34 -13 16 -43 48 -68 71 -33 30 -49 54 -58 87 -15
58 -72 152 -72 120z"/>
<path d="M1706 1943 c-3 -10 -8 -39 -11 -65 -8 -54 11 -95 56 -122 32 -19 48
-60 57 -155 4 -36 12 -66 17 -68 15 -5 1 134 -18 179 -8 20 -25 43 -36 50 -31
19 -26 33 25 70 25 18 41 34 35 36 -5 2 -29 -11 -53 -28 -40 -29 -43 -30 -55
-13 -10 12 -12 35 -7 75 6 56 1 77 -10 41z"/>
<path d="M6140 1900 c0 -5 14 -10 30 -10 17 0 30 5 30 10 0 6 -13 10 -30 10
-16 0 -30 -4 -30 -10z"/>
<path d="M5970 1879 c-30 -5 -59 -14 -65 -20 -7 -8 0 -10 25 -5 19 3 54 8 78
12 23 4 42 10 42 15 0 10 -5 10 -80 -2z"/>
<path d="M1982 1476 l-52 -104 15 -99 c8 -54 15 -120 15 -148 0 -56 8 -95 20
-95 10 0 2 113 -16 228 -8 51 -12 103 -8 115 3 12 26 62 50 110 47 94 48 97
36 97 -5 0 -32 -47 -60 -104z"/>
<path d="M5817 1487 c-27 -33 -18 -47 50 -82 34 -17 69 -37 77 -44 9 -8 16
-11 16 -8 0 10 71 -23 135 -64 34 -21 66 -39 70 -39 4 0 34 -20 67 -45 51 -38
67 -45 106 -45 75 0 113 -25 136 -90 10 -30 43 -92 72 -138 l54 -83 -18 -27
c-11 -15 -26 -48 -35 -75 l-16 -47 40 -60 c21 -32 44 -70 51 -84 10 -24 28
-36 28 -19 0 12 -62 118 -82 139 -18 20 -18 23 -2 70 9 27 25 58 35 70 10 11
19 24 19 28 0 5 -19 36 -42 69 -36 54 -69 118 -106 210 -14 34 -47 47 -117 47
-48 0 -58 4 -108 45 -31 25 -60 45 -65 45 -5 0 -32 15 -58 33 -27 18 -62 38
-78 45 -45 20 -27 22 56 8 74 -13 127 -40 185 -95 12 -11 24 -17 27 -13 7 12
-54 67 -101 92 -22 11 -66 25 -97 30 -31 5 -64 13 -73 19 -16 8 -14 11 12 21
17 6 49 17 73 23 23 6 42 15 42 19 0 14 -27 9 -96 -17 -77 -29 -96 -30 -127
-10 -12 8 -31 13 -42 13 -19 -2 -75 28 -75 40 0 3 7 14 17 24 13 14 13 18 2
18 -8 0 -22 -10 -32 -23z"/>
<path d="M2032 1282 c37 -37 101 -102 143 -144 42 -43 96 -89 121 -104 l45
-27 22 20 c57 53 84 54 153 8 29 -19 56 -35 59 -35 14 0 -18 31 -62 60 -47 32
-72 37 -104 20 -27 -15 -24 -2 6 26 14 13 25 29 25 36 -1 7 -24 -13 -53 -44
-29 -32 -57 -58 -63 -58 -25 0 -175 135 -209 187 -10 15 -28 35 -39 43 -12 8
-37 29 -57 47 -65 59 -56 34 13 -35z"/>
<path d="M2845 783 c-60 -13 -123 -24 -139 -24 -21 0 -26 -3 -18 -11 8 -8 33
-7 89 5 163 33 222 41 236 29 7 -6 38 -18 68 -26 30 -8 72 -22 94 -30 22 -8
63 -16 90 -16 36 -1 45 -4 30 -10 -25 -10 -21 -12 110 -45 105 -26 165 -32
165 -15 0 6 -13 10 -29 10 -16 0 -71 10 -123 21 -103 24 -104 20 22 65 l65 23
-80 -3 c-44 -2 -101 -9 -127 -16 -48 -12 -65 -10 -193 25 -32 9 -68 23 -79 31
-26 18 -49 17 -181 -13z"/>
<path d="M5742 769 c24 -63 50 -164 59 -224 12 -87 55 -259 75 -297 8 -15 21
-28 28 -28 21 0 73 -76 92 -132 17 -51 41 -68 29 -20 -11 46 -85 163 -109 172
-13 4 -28 21 -34 37 -13 33 -67 267 -77 333 -11 74 -35 147 -52 162 -14 11
-16 11 -11 -3z"/>
<path d="M1939 330 c-55 -65 -109 -122 -120 -125 -20 -7 -26 -25 -9 -25 16 0
89 70 131 125 21 28 57 71 80 98 22 26 36 47 30 47 -5 0 -56 -54 -112 -120z"/>
<path d="M5916 261 c5 -4 41 -19 79 -32 39 -13 72 -27 73 -31 5 -12 32 -10 32
2 0 6 -8 13 -17 16 -10 4 -31 12 -48 19 -59 26 -138 43 -119 26z"/>
</g>
</svg>
