<?xml version="1.0" standalone="no"?>
<!DOCTYPE svg PUBLIC "-//W3C//DTD SVG 20010904//EN"
 "http://www.w3.org/TR/2001/REC-SVG-20010904/DTD/svg10.dtd">
<svg version="1.0" xmlns="http://www.w3.org/2000/svg"
 width="500.000000pt" height="500.000000pt" viewBox="0 0 500.000000 500.000000"
 preserveAspectRatio="xMidYMid meet">

<g transform="translate(0.000000,500.000000) scale(0.100000,-0.100000)"
fill="#000000" stroke="none">
<path d="M2675 4814 c-80 -13 -196 -62 -272 -117 -41 -29 -44 -29 -62 -13 -36
33 -117 56 -194 56 -100 -1 -170 -19 -293 -75 -91 -42 -169 -32 -232 28 l-33
32 -20 -24 c-29 -36 -25 -112 10 -183 15 -32 24 -58 20 -58 -3 0 -17 -26 -30
-57 -12 -32 -31 -71 -42 -86 -24 -35 -33 -106 -18 -136 11 -19 8 -29 -19 -68
-16 -26 -35 -65 -40 -87 -5 -23 -15 -54 -21 -71 -6 -16 -17 -47 -25 -67 -26
-72 13 -115 95 -104 35 5 43 4 33 -6 -27 -27 -7 -78 29 -78 21 0 35 -38 20
-53 -14 -14 -14 -43 1 -67 10 -16 8 -26 -10 -58 -33 -59 -30 -135 7 -193 24
-38 83 -89 104 -89 3 0 19 21 35 48 52 84 113 134 183 153 82 22 139 -12 139
-83 0 -35 -3 -39 -47 -62 -51 -26 -82 -55 -104 -97 -8 -15 -37 -45 -65 -67
-51 -40 -79 -84 -90 -141 -4 -17 -9 -31 -13 -31 -3 0 -38 7 -76 15 -91 19
-225 19 -300 0 -257 -67 -435 -322 -435 -623 0 -204 70 -373 212 -508 103 -99
211 -159 352 -194 125 -31 309 -25 441 14 98 29 213 84 297 140 l53 36 6 -97
c11 -165 72 -285 193 -377 180 -137 436 -159 640 -55 138 70 243 183 356 383
63 112 123 160 214 172 35 5 64 0 133 -24 136 -48 176 -54 247 -41 60 12 126
35 126 44 0 3 -22 2 -50 -1 -62 -7 -149 15 -232 58 -35 18 -85 40 -112 49
l-50 16 48 28 c102 60 200 77 292 50 32 -9 69 -23 82 -31 39 -26 24 2 -35 60
-101 102 -203 146 -337 146 -218 0 -343 -101 -532 -430 -53 -91 -117 -161
-167 -184 -90 -40 -139 -45 -208 -21 -107 38 -148 138 -98 238 12 23 50 69 83
102 67 65 303 237 458 333 255 159 339 260 340 409 0 77 -12 111 -67 183 -23
30 -51 76 -63 102 -28 65 -101 134 -176 168 -35 16 -77 40 -93 54 -35 29 -124
76 -145 76 -8 0 -22 6 -31 13 -14 11 -15 19 -4 71 l12 59 90 1 c103 1 151 19
178 65 20 34 22 70 5 106 -10 21 -9 27 7 38 10 8 18 26 18 42 0 16 8 41 19 55
11 16 18 38 16 55 -3 25 1 29 32 38 19 5 41 13 48 19 21 18 13 73 -25 169 -34
87 -36 101 -34 187 1 51 -3 109 -9 128 -9 28 -9 42 1 67 18 43 18 166 0 201
-19 35 -64 62 -126 76 -29 6 -58 21 -70 34 -30 35 -59 46 -114 46 -39 0 -61 7
-98 30 -26 17 -70 38 -98 46 -51 15 -206 26 -260 18z m165 -91 c-45 -17 -105
-72 -150 -138 -29 -40 -63 -81 -76 -90 -13 -8 -24 -14 -24 -11 0 2 19 39 43
82 47 84 91 127 153 149 38 14 88 21 54 8z m-250 -80 c-28 -32 -65 -83 -80
-114 -26 -50 -74 -98 -86 -86 -8 7 84 169 109 194 22 22 85 61 100 62 5 1 -15
-25 -43 -56z m326 24 c-45 -28 -89 -73 -113 -116 -32 -55 -52 -80 -77 -93 -14
-8 -10 6 19 59 42 79 76 117 125 143 40 22 78 27 46 7z m229 -48 c29 -13 28
-13 -35 -19 -75 -6 -120 -30 -165 -86 -17 -21 -37 -47 -47 -58 -29 -36 -30
-10 -2 49 53 110 151 155 249 114z m-1171 -63 c56 -23 52 -34 -13 -35 -36 0
-73 -7 -92 -16 -28 -15 -30 -19 -17 -32 9 -8 48 -19 88 -24 54 -6 82 -16 107
-35 41 -31 39 -37 -8 -24 -38 11 -112 13 -122 4 -13 -13 106 -124 150 -140 24
-9 43 -18 43 -20 0 -2 -9 -18 -20 -36 -27 -44 -25 -84 6 -152 25 -55 25 -55 8
-111 -15 -47 -16 -64 -6 -116 9 -50 9 -68 -3 -95 -22 -53 -112 -135 -195 -178
-125 -65 -187 -112 -225 -170 l-18 -28 -13 24 c-7 12 -13 44 -14 70 0 41 5 54
35 87 l35 39 -25 16 c-34 23 -23 36 30 36 39 0 47 5 84 46 22 25 43 59 46 75
4 16 11 29 16 29 16 0 9 -84 -12 -130 l-20 -44 26 24 c40 37 55 73 55 132 l0
53 -97 92 c-102 96 -140 116 -182 94 -11 -6 -25 -20 -31 -30 -9 -18 -8 -18 20
-8 24 9 33 8 45 -4 25 -24 8 -49 -31 -49 -19 0 -58 -12 -86 -26 -62 -31 -75
-22 -48 34 11 22 20 54 20 69 0 15 10 44 21 63 56 94 113 117 140 58 19 -42
61 -72 91 -65 40 10 116 67 148 110 35 48 37 57 11 57 -10 0 -40 9 -65 21 -35
15 -58 19 -87 14 -44 -8 -49 2 -16 32 34 31 62 43 103 43 46 0 35 18 -18 29
-59 13 -102 -6 -162 -70 -57 -60 -79 -71 -90 -44 -6 18 1 41 24 75 10 14 27
54 40 90 12 36 29 72 36 81 12 13 11 19 -11 39 -33 31 -27 34 23 10 52 -25 80
-25 106 -1 53 50 110 62 170 37z m425 -29 c-19 -17 -47 -41 -62 -52 -14 -12
-35 -41 -46 -65 l-20 -45 0 36 c-1 49 34 97 94 130 67 36 77 35 34 -4z m833 2
c28 -15 6 -29 -47 -29 -64 0 -146 -35 -164 -69 -9 -17 -6 -18 39 -13 28 2 50
2 50 -2 0 -3 -18 -15 -40 -26 -47 -24 -160 -39 -160 -21 0 6 4 11 9 11 6 0 29
25 53 56 59 76 107 104 181 104 32 0 68 -5 79 -11z m122 -21 c9 -35 7 -61 -7
-88 -11 -21 -10 -31 5 -66 10 -24 22 -91 29 -165 9 -103 18 -141 49 -222 26
-65 34 -99 27 -102 -7 -2 -30 -6 -52 -9 -22 -3 -53 -9 -69 -12 -26 -6 -28 -5
-22 12 7 18 6 18 -11 1 -24 -24 -7 -50 38 -57 28 -4 35 -10 37 -31 3 -23 -2
-28 -45 -43 -26 -9 -54 -18 -62 -20 -15 -3 -36 -35 -28 -43 3 -3 21 1 40 8 19
6 42 9 51 6 22 -9 20 -37 -2 -37 -33 0 -42 -20 -27 -58 35 -82 11 -112 -88
-112 -151 0 -324 77 -399 177 -20 27 -28 32 -28 18 0 -38 58 -131 124 -198
l68 -70 -5 -61 c-3 -34 -12 -104 -21 -156 -18 -100 -16 -129 10 -154 25 -26
31 -19 36 39 6 69 18 84 51 62 35 -22 66 -92 73 -163 6 -59 6 -61 -24 -82 -61
-44 -210 -24 -347 46 -73 37 -396 263 -403 282 -2 4 17 11 42 14 53 8 115 51
146 100 12 20 27 67 34 104 8 50 18 75 39 97 33 36 57 110 57 180 l0 51 38 -4
c27 -3 45 2 65 18 32 26 38 57 8 40 -73 -39 -185 33 -193 124 -4 53 14 55 33
4 15 -40 62 -88 75 -76 3 4 -4 16 -16 28 -13 13 -20 31 -18 47 5 40 25 39 42
-1 12 -28 21 -36 40 -36 33 0 42 16 16 30 -35 19 -23 38 35 55 77 22 130 72
152 142 14 44 23 57 49 68 34 14 84 72 84 99 0 9 10 24 21 34 12 9 36 29 53
43 17 14 53 33 80 42 63 21 96 52 96 89 0 34 15 37 24 6z m-591 -158 c58 -21
65 -25 46 -32 -12 -5 -47 -4 -77 2 -31 5 -93 10 -138 10 -109 0 -179 -26 -245
-89 -34 -33 -49 -42 -49 -31 0 48 82 122 170 154 65 23 204 17 293 -14z m216
-77 c-31 -37 -146 -56 -204 -34 l-20 8 20 6 c11 3 47 9 80 13 33 3 67 10 75
15 8 5 26 9 39 9 21 0 22 -2 10 -17z m-350 -7 c-3 -3 -40 -18 -84 -35 -44 -16
-89 -33 -99 -37 -33 -13 -8 15 42 47 35 22 58 29 96 29 27 0 47 -2 45 -4z
m111 -92 c36 -9 79 -16 95 -16 29 1 29 0 10 -15 -21 -15 -101 -14 -235 6 -56
7 -54 12 10 30 48 13 47 13 120 -5z m-952 -52 c-2 -14 -8 -27 -15 -29 -14 -5
-28 40 -19 63 10 25 38 -3 34 -34z m582 -51 c-5 -11 -15 -23 -21 -27 -6 -3
-22 -30 -35 -58 -25 -54 -30 -109 -14 -166 l9 -35 -24 28 c-53 60 -22 199 58
255 39 27 40 27 27 3z m310 1 l75 -18 -34 -12 c-21 -7 -59 -10 -100 -6 -96 9
-146 -7 -203 -67 -54 -55 -57 -53 -25 10 26 50 56 76 113 96 51 18 83 18 174
-3z m-148 -178 c19 -53 24 -159 8 -169 -6 -3 -10 4 -10 18 0 13 -9 57 -20 98
-11 41 -20 82 -20 92 0 34 24 11 42 -39z m-777 -15 c4 -5 18 -14 31 -19 13 -5
24 -14 24 -20 0 -16 -72 -57 -130 -74 -76 -23 -80 -22 -76 20 4 40 18 54 58
54 18 0 33 9 44 25 17 26 38 32 49 14z m701 -134 c-6 -28 -25 -55 -76 -106
-39 -38 -73 -81 -76 -95 -5 -21 -9 -23 -15 -12 -16 29 11 84 72 148 63 66 78
92 80 138 1 27 1 26 11 -5 6 -17 7 -48 4 -68z m-681 -24 c-3 -6 -11 -8 -17 -5
-6 4 -5 9 3 15 16 10 23 4 14 -10z m-67 -28 c6 -19 -33 -16 -49 3 -11 14 -9
15 16 12 16 -1 30 -9 33 -15z m545 -45 c-41 -44 -53 -70 -53 -113 0 -40 14
-73 39 -92 14 -11 13 -12 -6 -13 -12 0 -34 11 -50 24 -24 21 -27 31 -28 84 0
53 3 64 28 90 23 24 57 42 96 51 3 1 -9 -14 -26 -31z m298 -37 c-93 -72 -93
-72 -100 -147 -4 -38 -13 -79 -21 -91 -26 -40 -82 -63 -155 -63 -36 0 -75 -5
-87 -11 -26 -14 -35 -4 -14 16 19 20 69 35 114 35 78 0 122 49 122 137 1 73
12 88 97 129 77 36 94 34 44 -5z m-303 -441 c67 -30 131 -86 218 -189 213
-254 476 -474 584 -488 50 -7 51 -19 3 -40 -70 -29 -171 -3 -261 65 -18 14
-66 67 -108 118 -102 127 -116 135 -62 37 77 -142 169 -264 243 -327 49 -40
118 -75 150 -76 17 0 17 -2 5 -10 -47 -30 -153 5 -231 77 -76 71 -127 143
-219 308 -76 136 -141 247 -150 255 -3 3 -17 21 -30 40 -69 99 -175 183 -272
216 -36 12 -46 19 -37 25 25 16 122 9 167 -11z m1000 -117 c38 -49 55 -83 81
-162 24 -72 41 -261 24 -261 -6 0 -14 24 -18 53 l-8 52 -9 -80 c-20 -188 -102
-309 -220 -321 l-43 -5 39 20 c70 37 98 74 136 181 21 58 23 82 23 220 -1 165
-15 248 -52 321 -20 38 -20 39 -2 30 10 -6 32 -28 49 -48z m-1138 24 c137 -67
236 -192 458 -580 13 -22 41 -66 61 -96 58 -87 58 -88 22 -65 -50 32 -98 81
-141 144 -36 53 -48 73 -101 168 -33 58 -129 200 -145 213 -16 13 -14 5 26
-86 98 -224 139 -343 87 -255 -10 16 -23 35 -30 42 -7 7 -35 42 -64 78 -131
166 -295 287 -414 306 l-41 7 33 14 c44 19 146 21 190 3 19 -7 55 -28 82 -47
26 -18 47 -29 47 -25 0 4 -13 29 -30 55 -37 58 -105 103 -182 119 -37 8 -53
15 -45 20 20 14 149 4 187 -15z m468 -116 c89 -60 222 -129 302 -156 96 -33
163 -33 224 0 l46 25 -14 -28 c-33 -63 -86 -92 -171 -92 -93 0 -179 45 -333
174 -137 115 -161 150 -54 77z m840 -3 c58 -88 87 -248 62 -345 -24 -95 -44
-145 -74 -183 l-19 -25 7 25 c37 130 38 137 34 275 -5 133 -15 187 -53 278
-14 33 14 17 43 -25z m-1983 -110 c7 -18 27 -52 44 -76 33 -45 32 -46 -23 -55
-29 -5 -80 6 -105 22 -11 7 -11 18 -1 62 7 30 17 60 23 67 18 23 47 13 62 -20z
m155 20 l33 -11 -44 -39 c-24 -21 -46 -38 -49 -38 -5 1 -61 77 -68 93 -6 11
91 8 128 -5z m-264 -35 c-3 -10 -8 -30 -12 -45 -7 -31 -12 -33 -68 -17 -44 12
-40 22 29 58 48 26 58 26 51 4z m324 -28 c0 -8 10 -36 21 -60 12 -25 20 -48
18 -50 -7 -7 -119 30 -119 39 0 11 62 84 73 85 4 1 7 -6 7 -14z m-407 -72 l59
-16 -6 -41 c-9 -54 -32 -78 -70 -74 -28 3 -33 9 -50 59 -18 51 -17 89 1 89 3
0 33 -7 66 -17z m1909 -100 c-33 -64 -82 -77 -167 -43 -30 12 -29 13 45 30 63
15 80 24 105 54 25 29 31 32 33 16 2 -10 -6 -36 -16 -57z m-2009 35 c4 -18 9
-42 12 -54 6 -19 2 -22 -42 -27 -26 -3 -49 -4 -51 -2 -3 3 22 49 49 94 19 29
25 27 32 -11z m212 12 c-3 -5 -10 -10 -16 -10 -5 0 -9 5 -9 10 0 6 7 10 16 10
8 0 12 -4 9 -10z m252 -81 c83 -34 124 -60 183 -119 99 -100 232 -242 228
-244 -171 -118 -264 -156 -384 -156 -184 0 -327 129 -327 295 0 138 88 234
215 235 31 0 70 -5 85 -11z m-417 -69 c14 -25 -8 -108 -32 -121 -14 -8 -28 1
-68 43 -74 78 -68 94 37 97 42 1 54 -3 63 -19z m-90 -156 c0 -12 -68 -82 -74
-76 -8 7 -8 136 0 156 4 11 14 4 40 -30 19 -24 34 -47 34 -50z m80 -107 c9
-37 13 -67 8 -67 -33 0 -148 34 -147 43 1 17 99 99 112 94 6 -2 18 -33 27 -70z
m-59 -97 l46 -15 -27 -60 -27 -60 -25 50 c-32 63 -46 121 -27 109 8 -5 35 -16
60 -24z m122 -52 c8 -13 25 -33 37 -46 12 -13 20 -24 19 -26 -10 -6 -102 -26
-119 -26 -22 0 -25 11 -11 38 5 9 16 32 23 50 15 38 30 41 51 10z m995 -88
c-3 -52 -4 -55 -28 -52 -14 2 -37 8 -52 14 -26 10 -28 15 -28 64 0 68 16 80
71 50 39 -21 40 -21 37 -76z m1607 81 c-36 -15 -91 -31 -104 -31 -7 0 -19 6
-27 14 -19 20 -4 24 81 25 45 0 63 -3 50 -8z m-155 -49 c0 -27 -89 -38 -105
-12 -2 4 12 16 33 27 38 20 72 14 72 -15z m-1604 -28 c-4 -11 -10 -12 -31 -2
l-26 12 23 17 c20 16 24 16 31 3 5 -8 6 -22 3 -30z m219 22 c19 -14 19 -15 1
-35 -27 -30 -36 -26 -36 14 0 38 6 42 35 21z m309 -41 c-7 -16 -24 -21 -24 -6
0 8 7 13 27 20 1 1 0 -6 -3 -14z m968 -9 c17 -12 17 -14 0 -30 -35 -31 -67
-18 -50 20 13 27 25 29 50 10z m-2181 -22 l53 -27 -40 -34 c-73 -63 -74 -63
-74 17 0 38 2 70 4 70 2 0 28 -12 57 -26z m632 9 c50 -18 53 -23 41 -93 -9
-57 -74 -85 -138 -60 -25 9 -25 9 -11 57 8 26 15 60 15 74 0 45 17 49 93 22z
m-740 -60 c-3 -38 -7 -69 -8 -71 -1 -1 -31 25 -66 57 l-64 60 40 1 c22 1 49 5
60 10 42 18 45 13 38 -57z m596 0 c-5 -26 -13 -51 -17 -55 -5 -5 -28 6 -51 23
-24 17 -40 33 -36 37 8 8 86 40 101 41 8 1 9 -13 3 -46z m681 27 c16 -8 17
-14 8 -42 -22 -69 -27 -71 -96 -42 l-34 14 49 39 c56 46 50 44 73 31z m-397
-20 c14 -1 -30 -40 -44 -40 -11 0 -12 34 -2 44 4 3 13 4 21 1 7 -3 19 -5 25
-5z m-525 -25 c5 -5 -50 -85 -58 -85 -9 0 -60 76 -60 89 0 8 108 4 118 -4z
m153 -53 l47 -31 -17 -35 c-18 -39 -34 -46 -112 -46 -40 0 -63 5 -79 18 l-22
18 49 71 c47 70 48 72 68 54 11 -10 41 -32 66 -49z m-286 -8 c41 -73 41 -98
-2 -89 -68 15 -113 30 -134 46 l-22 16 45 31 c24 17 50 37 57 46 8 9 15 16 16
16 2 0 20 -30 40 -66z m1968 60 c3 -3 -4 -17 -16 -30 -25 -29 -31 -26 -18 10
10 25 21 32 34 20z m-1019 -79 c20 -8 36 -19 36 -23 -1 -4 -21 -29 -45 -55
l-45 -49 0 64 c0 55 5 78 15 78 2 0 19 -7 39 -15z m-550 -34 c3 -4 -6 -13 -19
-19 -27 -12 -28 -12 -19 12 7 17 29 22 38 7z m650 -42 c13 -67 9 -79 -26 -78
-18 1 -45 4 -60 8 l-27 6 42 47 c23 26 47 47 53 48 6 0 14 -14 18 -31z m-61
-115 c20 -3 37 -9 37 -13 0 -4 -8 -30 -18 -59 -17 -48 -20 -51 -34 -35 -24 29
-58 93 -58 109 0 10 6 14 18 10 9 -3 34 -8 55 -12z m129 -56 c31 -49 25 -58
-40 -58 -40 0 -43 2 -36 23 10 34 34 77 42 77 4 0 19 -19 34 -42z m578 -65 c0
-5 -6 -16 -14 -25 -9 -13 -16 -14 -24 -6 -8 8 -7 15 6 24 19 15 32 18 32 7z
m-458 -39 l31 -16 -26 -25 c-31 -31 -47 -23 -47 23 0 39 1 39 42 18z m-82 -39
c0 -25 -2 -45 -5 -45 -9 0 -80 42 -98 58 -18 16 -18 17 0 23 10 4 37 8 61 8
l42 1 0 -45z m450 6 c0 -30 -26 -46 -55 -33 -31 14 -32 26 -2 40 35 17 57 14
57 -7z m-160 -17 c0 -3 -10 -19 -21 -36 l-21 -29 -29 27 c-16 15 -29 31 -29
36 0 4 23 8 50 8 28 0 50 -3 50 -6z m-129 -36 c10 -13 18 -26 19 -30 0 -12
-62 -9 -80 2 -13 9 -11 13 10 30 31 24 28 24 51 -2z m194 -8 c3 -5 -3 -10 -15
-10 -12 0 -18 5 -15 10 3 6 10 10 15 10 5 0 12 -4 15 -10z"/>
<path d="M2005 4084 c-4 -38 -14 -81 -21 -96 -20 -39 -62 -68 -100 -68 -43 0
-43 -11 -1 -40 54 -37 82 -86 81 -141 0 -27 3 -46 7 -44 21 13 39 79 39 142 0
38 7 91 16 117 18 51 15 148 -4 182 -8 14 -12 3 -17 -52z"/>
<path d="M3175 4197 c-46 -18 -90 -44 -104 -61 -16 -20 -19 -20 57 4 69 22
117 26 127 10 3 -5 -7 -12 -22 -15 -38 -7 -136 -58 -141 -73 -5 -17 39 -15 78
4 35 18 50 9 50 -30 0 -14 -5 -17 -25 -12 -35 9 -31 -9 4 -24 39 -16 65 -10
69 16 2 11 21 43 42 72 22 29 40 58 40 65 0 20 -74 57 -111 56 -19 0 -47 -6
-64 -12z"/>
<path d="M795 1090 c-196 -4 -230 -7 -233 -20 -2 -10 10 -20 32 -28 50 -19 56
-50 56 -315 0 -262 -6 -286 -68 -287 -17 0 -23 -5 -20 -17 3 -16 20 -18 171
-21 162 -2 167 -2 167 18 0 16 -7 20 -34 20 -56 0 -66 25 -66 157 l0 113 60 0
c62 0 100 -21 100 -55 0 -9 9 -15 23 -15 23 0 24 2 23 95 -1 82 -3 95 -18 95
-9 0 -24 -10 -32 -22 -13 -19 -28 -23 -86 -26 l-71 -4 3 123 3 124 65 0 c80 0
116 -20 138 -76 12 -30 20 -39 39 -39 24 0 24 1 21 93 -3 84 -5 92 -23 92 -11
1 -123 -2 -250 -5z"/>
<path d="M1130 1073 c0 -11 11 -23 30 -30 17 -6 34 -23 40 -38 6 -15 10 -132
10 -276 0 -236 -1 -250 -20 -269 -11 -11 -29 -20 -39 -20 -19 0 -35 -23 -24
-34 4 -3 78 -6 165 -6 151 0 158 1 158 20 0 15 -7 20 -29 20 -49 0 -61 29 -61
147 0 102 0 103 24 103 21 0 35 -18 92 -122 94 -169 92 -168 204 -168 100 0
109 7 60 49 -31 27 -170 243 -170 264 0 7 16 22 34 34 19 12 47 39 63 59 24
32 28 47 28 98 0 80 -24 121 -90 155 -48 25 -57 26 -262 29 -202 4 -213 3
-213 -15z m333 -54 c37 -17 68 -80 69 -138 0 -89 -38 -130 -119 -131 l-53 0 0
140 0 140 40 0 c21 0 50 -5 63 -11z"/>
<path d="M2040 1072 c0 -10 4 -22 10 -28 6 -6 -22 -101 -75 -260 -103 -310
-110 -326 -152 -339 -22 -6 -33 -15 -33 -27 0 -16 11 -18 116 -18 105 0 115 2
112 17 -2 10 -14 20 -28 22 -45 6 -47 39 -9 128 l18 43 53 -1 c29 -1 77 -4
107 -7 l55 -7 19 -54 c24 -71 17 -99 -25 -103 -22 -2 -34 -9 -36 -20 -3 -17
10 -18 157 -18 154 0 161 1 161 20 0 11 -6 20 -14 20 -23 0 -62 48 -79 97 -24
71 -142 408 -169 483 l-23 65 -83 3 c-74 3 -82 1 -82 -16z m102 -274 c20 -62
34 -116 32 -120 -9 -14 -154 -10 -154 4 0 22 71 228 79 228 4 0 23 -51 43
-112z"/>
<path d="M2417 1071 c-3 -15 2 -20 23 -25 16 -3 38 -15 49 -27 20 -22 21 -34
21 -248 0 -209 1 -228 21 -269 64 -131 328 -163 442 -54 63 59 67 79 67 325 0
212 1 226 21 251 11 14 27 26 35 26 8 0 14 9 14 20 0 19 -7 20 -105 20 -98 0
-105 -1 -105 -20 0 -11 6 -20 14 -20 8 0 24 -12 35 -26 20 -25 21 -40 21 -223
0 -109 -5 -213 -11 -235 -31 -113 -186 -138 -263 -43 l-31 39 -3 214 c-4 235
0 257 53 270 16 4 25 13 25 25 0 18 -10 19 -159 19 -147 0 -159 -1 -164 -19z"/>
<path d="M3170 1071 c0 -14 6 -21 20 -21 11 0 29 -9 40 -20 19 -19 20 -33 20
-285 0 -252 -1 -266 -20 -285 -11 -11 -29 -20 -40 -20 -13 0 -20 -7 -20 -20 0
-19 7 -20 185 -20 199 0 264 9 337 47 106 55 153 147 151 298 -2 158 -55 254
-172 309 l-66 30 -217 4 c-216 4 -218 4 -218 -17z m402 -76 c73 -52 116 -175
105 -302 -10 -121 -42 -184 -110 -220 -38 -19 -131 -23 -149 -5 -10 10 -14 79
-16 289 l-3 275 65 -4 c52 -3 74 -10 108 -33z"/>
<path d="M3880 1070 c0 -13 7 -20 19 -20 10 0 29 -9 42 -19 24 -19 24 -20 27
-278 3 -289 0 -306 -56 -311 -24 -2 -32 -8 -32 -23 0 -18 9 -19 259 -19 143 0
262 4 265 8 3 5 10 35 15 68 6 32 13 69 17 82 6 19 3 22 -24 22 -23 0 -31 -5
-36 -22 -7 -31 -45 -71 -79 -86 -15 -6 -57 -12 -92 -12 -82 0 -85 6 -85 144
l0 106 63 0 c66 0 85 -10 100 -52 4 -10 16 -18 27 -18 19 0 20 6 20 100 0 86
-2 100 -16 100 -9 0 -27 -11 -40 -25 -20 -22 -32 -25 -89 -25 l-65 0 0 120 0
120 65 0 c84 0 117 -17 145 -75 15 -30 28 -45 41 -45 17 0 19 8 19 90 l0 90
-255 0 c-248 0 -255 -1 -255 -20z"/>
</g>
</svg>
